<svg width="457.422" height="73.049" viewBox="0 0 457.422 73.049" xmlns="http://www.w3.org/2000/svg">
    <g id="svgGroup" stroke-linecap="round" fill-rule="evenodd" font-size="9pt" stroke="#114232"
        stroke-width="0.25mm" fill="#114232" style="stroke:#114232;stroke-width:0.25mm;fill:#114232">
        <path
            d="M 122.168 0.977 L 122.168 72.071 L 109.863 72.071 L 109.863 40.479 L 78.076 40.479 L 78.076 72.071 L 65.723 72.071 L 65.723 0.977 L 78.076 0.977 L 78.076 30.567 L 109.863 30.567 L 109.863 0.977 L 122.168 0.977 Z M 267.676 21.729 L 255.371 21.729 A 14.268 14.268 0 0 0 254.92 18.041 A 10.139 10.139 0 0 0 251.88 13.014 A 11.348 11.348 0 0 0 247.56 10.627 Q 245.862 10.103 243.821 9.939 A 24.081 24.081 0 0 0 241.895 9.864 Q 237.694 9.864 234.798 11.11 A 10.558 10.558 0 0 0 232.495 12.452 A 8.394 8.394 0 0 0 229.196 18.62 A 11.93 11.93 0 0 0 229.15 19.679 Q 229.15 23.585 232.764 26.197 A 19.502 19.502 0 0 0 235.167 27.655 Q 237.881 29.07 242.014 30.44 A 89.005 89.005 0 0 0 244.678 31.275 Q 250.652 33.05 254.932 35.179 A 36.043 36.043 0 0 1 258.008 36.891 A 26.643 26.643 0 0 1 261.651 39.603 Q 263.66 41.402 264.971 43.443 A 16.094 16.094 0 0 1 265.381 44.117 A 17.482 17.482 0 0 1 267.49 50.342 A 22.753 22.753 0 0 1 267.725 53.663 Q 267.725 62.55 260.913 67.799 A 23.521 23.521 0 0 1 252.887 71.735 Q 249.566 72.679 245.618 72.944 A 47.545 47.545 0 0 1 242.432 73.048 A 36.422 36.422 0 0 1 232.842 71.818 A 32.391 32.391 0 0 1 228.247 70.191 A 26.829 26.829 0 0 1 222.498 66.792 A 21.709 21.709 0 0 1 218.188 62.306 Q 214.6 57.276 214.6 50.587 L 226.953 50.587 Q 226.953 56.641 230.957 59.962 A 13.09 13.09 0 0 0 235.385 62.317 Q 237.272 62.92 239.553 63.146 A 29.205 29.205 0 0 0 242.432 63.282 A 25.437 25.437 0 0 0 245.977 63.052 Q 247.788 62.796 249.252 62.257 A 10.122 10.122 0 0 0 252.124 60.67 A 8.324 8.324 0 0 0 255.338 54.616 A 10.734 10.734 0 0 0 255.371 53.761 Q 255.371 49.073 252.075 46.534 A 16.261 16.261 0 0 0 249.839 45.122 Q 246.396 43.277 240.186 41.407 A 84.705 84.705 0 0 1 234.693 39.559 Q 232.042 38.558 229.845 37.481 A 36.996 36.996 0 0 1 226.514 35.645 A 24.893 24.893 0 0 1 221.39 31.468 A 16.78 16.78 0 0 1 216.797 19.727 A 17.064 17.064 0 0 1 222.355 6.821 A 22.331 22.331 0 0 1 223.804 5.567 Q 230.636 0.139 241.438 0.004 A 44.3 44.3 0 0 1 241.992 0.001 A 34.414 34.414 0 0 1 249.32 0.75 A 27.592 27.592 0 0 1 255.225 2.735 A 22.396 22.396 0 0 1 262.037 7.591 A 21.131 21.131 0 0 1 264.355 10.523 Q 267.676 15.577 267.676 21.729 Z M 178.32 30.567 L 178.32 40.333 L 149.121 40.333 L 149.121 62.208 L 183.252 62.208 L 183.252 72.071 L 136.768 72.071 L 136.768 0.977 L 182.91 0.977 L 182.91 10.938 L 149.121 10.938 L 149.121 30.567 L 178.32 30.567 Z M 387.305 0.977 L 399.609 0.977 L 399.609 48.487 A 28.557 28.557 0 0 1 398.59 56.321 A 21.307 21.307 0 0 1 392.358 66.432 A 24.609 24.609 0 0 1 380.851 72.248 A 36.076 36.076 0 0 1 373.047 73.048 A 36.965 36.965 0 0 1 364.933 72.208 Q 358.264 70.708 353.662 66.529 A 21.362 21.362 0 0 1 347.021 54.389 A 31.449 31.449 0 0 1 346.484 48.438 L 346.484 0.977 L 358.789 0.977 L 358.789 48.536 A 22.491 22.491 0 0 0 359.16 52.757 Q 359.615 55.135 360.627 56.992 A 11.297 11.297 0 0 0 362.402 59.425 Q 365.594 62.745 371.451 63.133 A 24.161 24.161 0 0 0 373.047 63.184 A 19.416 19.416 0 0 0 378.776 62.412 Q 387.305 59.777 387.305 48.145 L 387.305 0.977 Z M 56.396 0.977 L 56.396 10.938 L 34.229 10.938 L 34.229 72.071 L 21.973 72.071 L 21.973 10.938 L 0 10.938 L 0 0.977 L 56.396 0.977 Z M 425.146 0.977 L 425.146 62.208 L 457.422 62.208 L 457.422 72.071 L 412.793 72.071 L 412.793 0.977 L 425.146 0.977 Z M 335.303 34.425 L 335.303 38.38 A 51.23 51.23 0 0 1 334.509 47.613 A 38.341 38.341 0 0 1 331.689 56.715 A 29.364 29.364 0 0 1 326.664 64.405 A 25.823 25.823 0 0 1 321.362 68.824 Q 314.648 73.048 305.908 73.048 A 30.184 30.184 0 0 1 296.308 71.559 A 27.085 27.085 0 0 1 290.503 68.824 Q 283.74 64.6 280.054 56.788 A 38.454 38.454 0 0 1 276.867 46.088 A 50.344 50.344 0 0 1 276.318 38.77 L 276.318 34.766 A 49.927 49.927 0 0 1 277.183 25.264 A 38.331 38.331 0 0 1 280.005 16.407 A 30.163 30.163 0 0 1 284.859 8.912 A 25.942 25.942 0 0 1 290.405 4.224 A 27.608 27.608 0 0 1 303.143 0.104 A 33.983 33.983 0 0 1 305.811 0.001 A 30.767 30.767 0 0 1 314.963 1.322 A 26.83 26.83 0 0 1 321.216 4.176 A 26.734 26.734 0 0 1 330.501 14.056 A 33.068 33.068 0 0 1 331.592 16.187 A 38.568 38.568 0 0 1 334.667 26.397 A 51.685 51.685 0 0 1 335.303 34.425 Z M 322.949 38.38 L 322.949 34.669 A 50.16 50.16 0 0 0 322.518 27.862 Q 321.562 20.896 318.481 16.554 A 14.266 14.266 0 0 0 308.104 10.386 A 19.434 19.434 0 0 0 305.811 10.255 A 16.315 16.315 0 0 0 299.884 11.289 Q 296.03 12.779 293.37 16.413 A 18.284 18.284 0 0 0 293.286 16.529 A 21.618 21.618 0 0 0 290.262 22.749 Q 288.728 27.644 288.672 34.278 L 288.672 38.38 A 48.549 48.549 0 0 0 289.118 45.184 Q 290.099 52.097 293.237 56.495 Q 297.803 62.891 305.908 62.891 A 17.12 17.12 0 0 0 311.528 62.013 A 14.076 14.076 0 0 0 318.53 56.641 A 20.775 20.775 0 0 0 321.308 50.88 Q 322.18 48.128 322.589 44.772 A 53.014 53.014 0 0 0 322.949 38.38 Z" />
    </g>
</svg>